<svg version="1.1" xmlns="http://www.w3.org/2000/svg" viewBox="87 290 800 220" width="200" height="55" aria-label="Viveros Terra — Jardinería en Tampico" role="img">

<path d="M0 0 C0.69114899 0.00068481 1.38229797 0.00136963 2.09439087 0.0020752 C13.66512601 0.04012601 13.66512601 0.04012601 14.875 1.25 C14.98894446 4.02009505 15.0392064 6.76417561 15.04296875 9.53515625 C15.04629715 10.38363632 15.04962555 11.23211639 15.05305481 12.10630798 C15.0581355 13.91632546 15.06046279 15.72635236 15.06030273 17.53637695 C15.06244976 20.24903002 15.08048047 22.96124934 15.09960938 25.67382812 C15.14711255 39.90303199 14.10971087 53.63148693 10.6875 67.5 C10.47391846 68.37422607 10.26033691 69.24845215 10.0402832 70.14916992 C3.08775738 97.62655751 -9.20816896 122.11435269 -28.125 143.25 C-28.84816406 144.09433594 -29.57132812 144.93867188 -30.31640625 145.80859375 C-34.58078023 150.7572704 -39.05779107 155.13073831 -44.125 159.25 C-45.04796875 160.01054687 -45.9709375 160.77109375 -46.921875 161.5546875 C-73.63546744 183.10504141 -108.04029391 196.7382424 -142.125 200.25 C-138.18831011 196.06056543 -133.93182873 192.75878401 -129.25 189.4375 C-128.47261475 188.88126953 -127.69522949 188.32503906 -126.89428711 187.75195312 C-114.1760063 178.68228771 -101.3392724 169.77614508 -88.40966797 161.01074219 C-75.79000619 152.4442038 -62.97457599 143.66578109 -52.4765625 132.49609375 C-51.125 131.25 -51.125 131.25 -49.125 131.25 C-48.76921875 130.41082031 -48.76921875 130.41082031 -48.40625 129.5546875 C-46.83087677 126.72093687 -44.87147151 124.71388964 -42.625 122.375 C-26.69395963 105.21715958 -15.33996547 84.04551673 -7.125 62.25 C-6.76051758 61.29697998 -6.76051758 61.29697998 -6.38867188 60.32470703 C-0.35014131 44.28647306 3.40823395 27.37867347 3.875 10.25 C-44.67478725 11.49176 -83.65529587 24.11776586 -119.125 58.25 C-119.80433594 58.86617188 -120.48367188 59.48234375 -121.18359375 60.1171875 C-151.09068483 88.09679454 -168.84161065 130.56543566 -175.125 170.25 C-177.80872519 167.65899559 -179.72237693 164.95406414 -181.75 161.8125 C-186.40119406 154.74165902 -191.3788538 147.92088758 -196.67578125 141.31640625 C-200.22938736 136.82184528 -203.03073617 132.021228 -205.875 127.0625 C-210.37959044 119.24955891 -215.37538064 112.18855518 -221.125 105.25 C-221.83011719 104.37988281 -222.53523438 103.50976562 -223.26171875 102.61328125 C-243.87307687 78.34445478 -273.03810758 67.91528929 -303.125 61.25 C-302.63568769 92.51958762 -295.89803741 121.38680366 -276.125 146.25 C-275.66077637 146.83910156 -275.19655273 147.42820312 -274.71826172 148.03515625 C-255.08857377 172.67370731 -227.54030927 187.88096705 -198.125 198.25 C-198.125 198.58 -198.125 198.91 -198.125 199.25 C-225.92355602 198.07706515 -251.23954878 190.05987843 -272.125 171.25 C-272.89328125 170.56421875 -273.6615625 169.8784375 -274.453125 169.171875 C-296.69059144 148.17846262 -307.86265207 116.31709769 -309.21679688 86.20898438 C-309.25810607 84.20057071 -309.2634833 82.19627157 -309.25 80.1875 C-309.24806641 79.47086182 -309.24613281 78.75422363 -309.24414062 78.01586914 C-309.18429525 70.40802639 -308.69662146 62.83419193 -308.125 55.25 C-270.77640671 57.80864596 -234.63654761 68.28576173 -209.125 97.25 C-200.22529956 107.99101777 -193.57084465 119.71192873 -187.875 132.375 C-187.55781006 133.07834473 -187.24062012 133.78168945 -186.91381836 134.50634766 C-184.24222254 140.61866696 -182.16438457 146.902717 -180.125 153.25 C-180.02795776 151.93733154 -180.02795776 151.93733154 -179.92895508 150.59814453 C-177.4143671 117.75093439 -177.4143671 117.75093439 -172.125 103.25 C-171.89941406 102.60901367 -171.67382812 101.96802734 -171.44140625 101.30761719 C-164.02837239 80.5029586 -152.37537236 63.0797938 -137.125 47.25 C-136.48304688 46.54488281 -135.84109375 45.83976562 -135.1796875 45.11328125 C-116.81209383 25.51323 -89.89875234 13.26624128 -64.125 7.25 C-63.36558105 7.06985352 -62.60616211 6.88970703 -61.82373047 6.70410156 C-41.48039471 1.98420868 -20.85497601 -0.03023643 0 0 Z " fill="#7EBA3B" transform="translate(396.125,296.75)"/>
<path d="M0 0 C7.87875 -0.061875 15.7575 -0.12375 23.875 -0.1875 C26.34210449 -0.21481201 28.80920898 -0.24212402 31.35107422 -0.27026367 C33.33560702 -0.2790364 35.32014528 -0.28667847 37.3046875 -0.29296875 C38.31152588 -0.30831665 39.31836426 -0.32366455 40.35571289 -0.33947754 C50.82149464 -0.34329624 59.18563788 1.83102047 67 9 C72.10021788 14.14006333 75.34735681 19.42353377 75.41748047 26.81079102 C75.40346191 27.49197998 75.38944336 28.17316895 75.375 28.875 C75.36484863 29.58390381 75.35469727 30.29280762 75.34423828 31.02319336 C75.10932891 38.93454041 73.1845741 44.49312044 67.828125 50.390625 C64.59295954 53.23867664 60.86385301 55.13676422 57 57 C60.20548782 62.9530488 64.01567999 68.27913307 68.0625 73.6875 C68.68705078 74.52861328 69.31160156 75.36972656 69.95507812 76.23632812 C73.28115987 80.72593162 73.28115987 80.72593162 76.70092773 85.14379883 C78 87 78 87 78 89 C57.73184153 91.20253454 57.73184153 91.20253454 52.02685547 87.83544922 C48.86129111 84.74258682 46.88089837 80.93765345 44.96386719 76.98535156 C43.39751262 73.75901028 41.58449521 70.72741871 39.6875 67.6875 C39.09324219 66.61886719 38.49898437 65.55023438 37.88671875 64.44921875 C33.97208065 60.64250601 33.97208065 60.64250601 22 61 C22 70.24 22 79.48 22 89 C14.74 89 7.48 89 0 89 C0 59.63 0 30.26 0 0 Z " fill="#065920" transform="translate(710,337)"/>
<path d="M0 0 C7.858125 -0.0825 15.71625 -0.165 23.8125 -0.25 C26.27050049 -0.28641602 28.72850098 -0.32283203 31.26098633 -0.36035156 C33.24299246 -0.37205088 35.22500832 -0.38223974 37.20703125 -0.390625 C38.20875366 -0.41108887 39.21047607 -0.43155273 40.24255371 -0.45263672 C50.46894692 -0.45761246 59.14469137 2.42251218 67.0546875 9 C73.76677654 15.90078231 75.36477536 23.50878343 75.28515625 32.82421875 C74.67989238 39.5650342 71.9506678 46.30989367 67 51 C63.74264154 53.14245816 60.40781953 55.10748953 57 57 C58.36949587 59.90632041 59.94005539 62.44970582 61.828125 65.046875 C62.65763672 66.1915625 62.65763672 66.1915625 63.50390625 67.359375 C64.08011719 68.14828125 64.65632812 68.9371875 65.25 69.75 C66.09111328 70.91015625 66.09111328 70.91015625 66.94921875 72.09375 C70.20670163 76.57749087 73.51599678 81.00978665 76.92480469 85.37988281 C78 87 78 87 78 89 C57.92941525 91.69019847 57.92941525 91.69019847 51.79833984 87.49267578 C47.54192768 82.98245661 44.73882873 77.51798996 42 72 C39.15482352 66.48556396 39.15482352 66.48556396 35 62 C30.12482918 60.86874489 26.06825612 60.90346179 21 61 C21 69.91 21 78.82 21 88 C14.07 88 7.14 88 0 88 C0 58.96 0 29.92 0 0 Z " fill="#03561D" transform="translate(613,337)"/>
<path d="M0 0 C0.33 0.66 0.66 1.32 1 2 C0.27832031 4.05273438 0.27832031 4.05273438 -0.921875 6.59375 C-1.5861853 8.0024939 -1.5861853 8.0024939 -2.26391602 9.43969727 C-2.75432373 10.44959717 -3.24473145 11.45949707 -3.75 12.5 C-4.25007568 13.53503662 -4.75015137 14.57007324 -5.26538086 15.63647461 C-16.18338754 37.85380598 -30.44200111 57.97287083 -47.296875 76.07421875 C-49.64444704 78.61516016 -51.91874449 81.20169929 -54.1875 83.8125 C-75.31475318 107.32082107 -101.44163785 125.24349555 -127.265625 143.10449219 C-131.39771629 145.9689169 -135.51454562 148.85463692 -139.625 151.75 C-140.3051416 152.22711426 -140.9852832 152.70422852 -141.68603516 153.19580078 C-148.59009049 157.42282615 -148.59009049 157.42282615 -152.8125 163.75 C-152.874375 164.4925 -152.93625 165.235 -153 166 C-160.36809217 163.46721832 -166.008636 160.22458362 -169.49536133 153.12426758 C-169.82689209 152.40263428 -170.15842285 151.68100098 -170.5 150.9375 C-171.26022449 149.41721448 -172.02458756 147.8989918 -172.79296875 146.3828125 C-173.16470215 145.6393457 -173.53643555 144.89587891 -173.91943359 144.12988281 C-179.099495 133.91956747 -184.06603073 128.11477833 -195 124 C-195.763125 123.68675781 -196.52625 123.37351562 -197.3125 123.05078125 C-202.82107001 120.97494145 -208.45339127 120.24256598 -214.27734375 119.52734375 C-217 119 -217 119 -219 117 C-216.14462087 116.04820696 -214.39561616 115.88305427 -211.4375 115.90234375 C-210.11878906 115.90717773 -210.11878906 115.90717773 -208.7734375 115.91210938 C-207.85820312 115.92048828 -206.94296875 115.92886719 -206 115.9375 C-205.08476562 115.94201172 -204.16953125 115.94652344 -203.2265625 115.95117188 C-201.52733061 115.95989227 -199.82810715 115.97066408 -198.12890625 115.98413086 C-196.41931015 115.99687441 -194.7096436 116 -193 116 C-196.6418385 110.59645913 -199.98290156 107.98158125 -206.34375 106.4296875 C-213.12196223 105.33321199 -218.52861559 105.68879128 -225 108 C-227.1640625 107.55859375 -227.1640625 107.55859375 -229 107 C-222.11036674 101.90167138 -215.37625946 100.44702235 -207 99 C-209.94191698 94.64596287 -212.95729637 92.36669082 -218 91 C-220.9797408 90.55523235 -223.92824852 90.40275176 -226.9375 90.3125 C-227.71673828 90.27833984 -228.49597656 90.24417969 -229.29882812 90.20898438 C-231.19874393 90.1273929 -233.09934403 90.06200115 -235 90 C-231.84821256 87.26094663 -229.35182386 86.44730607 -225.25 85.8125 C-223.77273437 85.57466797 -223.77273437 85.57466797 -222.265625 85.33203125 C-221.14414063 85.16767578 -221.14414063 85.16767578 -220 85 C-230.65017327 72.26487218 -243.37378102 62.36025985 -257 53 C-256.01 52.505 -256.01 52.505 -255 52 C-238.43356082 57.721825 -223.96914736 67.11442219 -211.59423828 79.41601562 C-209.95131222 81.04837462 -208.2878645 82.65764771 -206.62109375 84.265625 C-199.90402696 90.79866256 -193.70819138 97.55235976 -188 105 C-187.37859131 105.79881592 -187.37859131 105.79881592 -186.74462891 106.61376953 C-175.09819114 121.64935949 -165.69578163 138.1199533 -157 155 C-154.84265255 152.16758605 -154.84265255 152.16758605 -154.37890625 149.03125 C-152.98050938 142.98268173 -151.51086034 138.66726014 -146.18359375 135.125 C-142.11917185 132.74110664 -137.91222346 130.62498341 -133.72167969 128.47314453 C-129.00054378 125.91776831 -124.57233902 122.9374206 -120.125 119.9375 C-119.23893066 119.34171143 -118.35286133 118.74592285 -117.43994141 118.13208008 C-110.39824546 113.35270503 -103.63447084 108.32918146 -97 103 C-95.95714844 102.195625 -94.91429687 101.39125 -93.83984375 100.5625 C-92.34130859 99.386875 -92.34130859 99.386875 -90.8125 98.1875 C-89.93207031 97.50042969 -89.05164063 96.81335938 -88.14453125 96.10546875 C-82.23986458 90.30835521 -82.82874639 81.32652604 -82.70874023 73.58032227 C-82.64170463 62.28058489 -82.87146272 52.6280819 -87 42 C-87.35563554 40.67244124 -87.69883741 39.34096606 -88 38 C-84.04943998 41.61058067 -81.70182441 44.94257362 -79.3125 49.8125 C-78.73113281 50.97394531 -78.14976562 52.13539063 -77.55078125 53.33203125 C-74.58020957 60.35814412 -73.67150389 66.91444208 -73.375 74.5 C-73.33632813 75.32242188 -73.29765625 76.14484375 -73.2578125 76.9921875 C-73.16468308 78.9944701 -73.08131015 80.99720262 -73 83 C-66.78135825 77.2836718 -66.26113631 72.89074939 -65.89501953 64.63183594 C-65.51279315 51.94951705 -66.26339734 39.55935854 -68 27 C-57.8528091 38.97283612 -57.69218608 53.10522628 -58 68 C-46.84600562 58.92339713 -37.72785307 47.65080478 -28.46435547 36.71728516 C-27.07301748 35.08562937 -25.66662195 33.46862017 -24.25390625 31.85546875 C-17.06727779 23.59500616 -10.66940626 14.84341937 -4.359375 5.90014648 C-2.93581906 3.91028731 -1.4747437 1.95213775 0 0 Z " fill="#7EBA3B" transform="translate(382,344)"/>
<path d="M0 0 C7.92 0 15.84 0 24 0 C27.11070905 6.66580511 29.95628498 13.34651557 32.5546875 20.2265625 C34.28400016 24.78116137 36.11679299 29.29386344 37.9375 33.8125 C40.66612281 40.59742479 43.30958955 47.40530498 45.84692383 54.26391602 C47.52820354 58.79264453 49.30615603 63.27495749 51.125 67.75 C58 84.81085526 58 84.81085526 58 89 C50.74 89 43.48 89 36 89 C34.845 85.90625 33.69 82.8125 32.5 79.625 C32.13455078 78.65127441 31.76910156 77.67754883 31.39257812 76.67431641 C31.10833984 75.90780762 30.82410156 75.14129883 30.53125 74.3515625 C30.23798828 73.56604004 29.94472656 72.78051758 29.64257812 71.97119141 C29 70 29 70 29 68 C17.78 68 6.56 68 -5 68 C-6.97286326 74.55976585 -6.97286326 74.55976585 -8.9140625 81.12890625 C-9.14867187 81.93199219 -9.38328125 82.73507812 -9.625 83.5625 C-9.86476563 84.38878906 -10.10453125 85.21507812 -10.3515625 86.06640625 C-11 88 -11 88 -12 89 C-13.56172745 89.08685603 -15.12729344 89.10702219 -16.69140625 89.09765625 C-17.63564453 89.09443359 -18.57988281 89.09121094 -19.55273438 89.08789062 C-20.54595703 89.07951172 -21.53917969 89.07113281 -22.5625 89.0625 C-23.55958984 89.05798828 -24.55667969 89.05347656 -25.58398438 89.04882812 C-28.05604849 89.03700007 -30.52799518 89.02051849 -33 89 C-31.62469373 82.88129047 -29.6490107 77.28692658 -27.25 71.5 C-23.94664125 63.46623151 -20.86487763 55.36006918 -17.83087158 47.22192383 C-16.38380644 43.35216996 -14.92020333 39.48868647 -13.45703125 35.625 C-13.1582608 34.8357312 -12.85949036 34.0464624 -12.55166626 33.23327637 C-11.63882012 30.82210494 -10.72568554 28.41104291 -9.8125 26 C-8.88496773 23.55065557 -7.9575115 21.10128241 -7.03019714 18.65185547 C-6.46043803 17.14692104 -5.89055287 15.64203433 -5.32051086 14.13720703 C-5.05981308 13.44868652 -4.7991153 12.76016602 -4.53051758 12.05078125 C-4.30656815 11.45950439 -4.08261871 10.86822754 -3.85188293 10.2590332 C-2.56301627 6.84120139 -1.28257428 3.42019807 0 0 Z " fill="#06581F" transform="translate(828,337)"/>
<path d="M0 0 C21.45 0 42.9 0 65 0 C65 5.61 65 11.22 65 17 C50.81 17 36.62 17 22 17 C22 23.27 22 29.54 22 36 C33.55 36 45.1 36 57 36 C57 41.61 57 47.22 57 53 C45.45 53 33.9 53 22 53 C22 58.94 22 64.88 22 71 C36.52 71 51.04 71 66 71 C66 76.94 66 82.88 66 89 C44.22 89 22.44 89 0 89 C0 59.63 0 30.26 0 0 Z " fill="#085A21" transform="translate(526,337)"/>
<path d="M0 0 C25.41 0 50.82 0 77 0 C77 5.61 77 11.22 77 17 C67.76 17 58.52 17 49 17 C49 40.76 49 64.52 49 89 C41.74 89 34.48 89 27 89 C27 65.57 27 42.14 27 18 C18.09 18 9.18 18 0 18 C0 12.06 0 6.12 0 0 Z " fill="#06581F" transform="translate(433,337)"/>
<path d="M0 0 C0.33 0 0.66 0 1 0 C1.05025871 4.97638556 1.08611551 9.95261641 1.10986328 14.92919922 C1.11978592 16.61444682 1.13332834 18.29967786 1.15087891 19.98486328 C1.30017589 34.71257128 0.35735223 48.88448266 -3.1875 63.25 C-3.40108154 64.12422607 -3.61466309 64.99845215 -3.8347168 65.89916992 C-10.78724262 93.37655751 -23.08316896 117.86435269 -42 139 C-43.08474609 140.26650391 -43.08474609 140.26650391 -44.19140625 141.55859375 C-48.45578023 146.5072704 -52.93279107 150.88073831 -58 155 C-58.92296875 155.76054687 -59.8459375 156.52109375 -60.796875 157.3046875 C-82.71477454 174.98626638 -108.58397184 186.0080999 -135.8125 192.4375 C-137.52264282 192.84476318 -137.52264282 192.84476318 -139.26733398 193.26025391 C-140.87717163 193.62449463 -140.87717163 193.62449463 -142.51953125 193.99609375 C-143.47964111 194.21450928 -144.43975098 194.4329248 -145.42895508 194.65795898 C-147.98811235 194.99841852 -149.57788381 194.82235643 -152 194 C-151.03682861 193.59442871 -151.03682861 193.59442871 -150.05419922 193.18066406 C-88.766788 167.2116065 -38.38895277 128.34073386 -12.4375 65.71875 C-4.23754906 44.50583343 -0.58011412 22.71146788 0 0 Z " fill="#61A835" transform="translate(410,301)"/>
<path d="M0 0 C10.1471909 11.97283612 10.30781392 26.10522628 10 41 C11.27200971 39.89718873 12.54255853 38.79269231 13.8125 37.6875 C14.52019531 37.07261719 15.22789062 36.45773437 15.95703125 35.82421875 C17.70136739 34.26665665 19.36778041 32.67341125 21 31 C21.66 31.33 22.32 31.66 23 32 C16.95122713 39.4840749 10.62235663 46.57153161 3.8125 53.375 C3.16023438 54.02791016 2.50796875 54.68082031 1.8359375 55.35351562 C-2.61971994 59.75986498 -7.25151277 63.91317225 -12 68 C-13.08269997 68.94975905 -14.16476919 69.90023781 -15.24609375 70.8515625 C-33.6907668 86.94685178 -53.60582766 101.62080975 -74.98706055 113.59326172 C-78.45346696 116.01575217 -79.64013736 119.11184904 -81 123 C-81.36867187 123.97582031 -81.73734375 124.95164062 -82.1171875 125.95703125 C-83.11140186 128.62769672 -84.06922489 131.3066933 -85 134 C-86.32 133.34 -87.64 132.68 -89 132 C-85.2691348 112.82223119 -85.2691348 112.82223119 -78.04296875 107.6484375 C-74.06337458 105.27980501 -69.87731688 103.33029043 -65.68945312 101.36035156 C-60.9163525 98.94607082 -56.54414063 95.93871319 -52.125 92.9375 C-51.23876953 92.34114746 -50.35253906 91.74479492 -49.43945312 91.13037109 C-42.39643968 86.35381729 -35.63401927 81.32881873 -29 76 C-27.95714844 75.195625 -26.91429687 74.39125 -25.83984375 73.5625 C-24.34130859 72.386875 -24.34130859 72.386875 -22.8125 71.1875 C-21.93207031 70.50042969 -21.05164063 69.81335938 -20.14453125 69.10546875 C-14.23986458 63.30835521 -14.82874639 54.32652604 -14.70874023 46.58032227 C-14.64170463 35.28058489 -14.87146272 25.6280819 -19 15 C-19.35563554 13.67244124 -19.69883741 12.34096606 -20 11 C-16.04943998 14.61058067 -13.70182441 17.94257362 -11.3125 22.8125 C-10.73113281 23.97394531 -10.14976562 25.13539063 -9.55078125 26.33203125 C-6.58020957 33.35814412 -5.67150389 39.91444208 -5.375 47.5 C-5.33632813 48.32242188 -5.29765625 49.14484375 -5.2578125 49.9921875 C-5.16468308 51.9944701 -5.08131015 53.99720262 -5 56 C1.21864175 50.2836718 1.73886369 45.89074939 2.10498047 37.63183594 C2.48720685 24.94951705 1.73660266 12.55935854 0 0 Z " fill="#66AB37" transform="translate(314,371)"/>
<path d="M0 0 C3.114375 -0.0825 6.22875 -0.165 9.4375 -0.25 C10.39970459 -0.28641602 11.36190918 -0.32283203 12.35327148 -0.36035156 C19.48975484 -0.45064071 25.74420997 0.88793967 31.03515625 5.9453125 C32.87943915 9.87281374 32.58161911 13.77490488 32 18 C29.81057458 22.9262072 27.02848536 24.92848357 22.35351562 27.18408203 C18.11554919 28.65330234 13.9317186 28.41615269 9.5 28.25 C6.365 28.1675 3.23 28.085 0 28 C0 18.76 0 9.52 0 0 Z " fill="#F4F7F5" transform="translate(634,354)"/>
<path d="M0 0 C6.32941001 5.57590882 6.32941001 5.57590882 7.15625 10.43359375 C7.04830559 21.88919441 7.04830559 21.88919441 2.625 26.3125 C-0.82323869 29.07982067 -3.98918687 30.55437629 -8.4375 30.75 C-14.07580393 30.12352179 -17.5202113 28.53548879 -21.1875 24.25 C-25.04262257 19.07312112 -25.14599525 14.66444947 -24.375 8.3125 C-22.68276134 4.24966839 -20.21863566 1.92070245 -16.6875 -0.625 C-10.80141095 -2.51299083 -5.59068277 -2.79534138 0 0 Z " fill="#115D27" transform="translate(639.375,471.6875)"/>
<path d="M0 0 C22.18163623 -0.62046535 22.18163623 -0.62046535 28 4 C31.62549084 7.87726104 31.56154732 11.17981238 31.41796875 16.30078125 C30.75087107 20.60886065 29.28087469 22.15657527 26 25 C22.51255573 26.68613363 19.77544347 27.24264348 15.91796875 27.1953125 C14.65762817 27.18781982 14.65762817 27.18781982 13.37182617 27.18017578 C12.32099854 27.16196777 11.2701709 27.14375977 10.1875 27.125 C5.1446875 27.063125 5.1446875 27.063125 0 27 C0 18.09 0 9.18 0 0 Z " fill="#F9FBF9" transform="translate(732,354)"/>
<path d="M0 0 C15 0 15 0 21 3 C23.50314069 6.75471104 23.18786615 8.51593977 22.625 12.8359375 C21.69309639 16.06265375 19.81761044 17.33833231 17 19 C18.54627529 22.51426203 20.70347962 25.44371382 22.9765625 28.51171875 C24 30 24 30 24 31 C20.9375 31.625 20.9375 31.625 17 31 C14.90766096 28.56472573 13.30487008 26.0495528 11.67578125 23.28515625 C10.05181563 20.56039903 10.05181563 20.56039903 6 20 C6 23.63 6 27.26 6 31 C4.02 31 2.04 31 0 31 C0 20.77 0 10.54 0 0 Z " fill="#0E5A23" transform="translate(583,470)"/>
<path d="M0 0 C6.93 0 13.86 0 21 0 C20.67 1.65 20.34 3.3 20 5 C15.38 5 10.76 5 6 5 C6 7.64 6 10.28 6 13 C9.96 13 13.92 13 18 13 C18 14.65 18 16.3 18 18 C14.04 18 10.08 18 6 18 C6 20.64 6 23.28 6 26 C10.95 26 15.9 26 21 26 C21 27.65 21 29.3 21 31 C14.07 31 7.14 31 0 31 C0 20.77 0 10.54 0 0 Z " fill="#1A612E" transform="translate(551,470)"/>
<path d="M0 0 C0.66 0 1.32 0 2 0 C3.42808369 4.09206747 4.85214285 8.18550604 6.27246094 12.28027344 C6.75637735 13.67356297 7.2413986 15.06646928 7.72753906 16.45898438 C8.42542506 18.4586414 9.1193484 20.45963523 9.8125 22.4609375 C10.23144531 23.66540527 10.65039062 24.86987305 11.08203125 26.11083984 C12 29 12 29 12 31 C4.74 31 -2.52 31 -10 31 C-9.33140186 26.98841116 -8.82253465 24.11295653 -7.44140625 20.46875 C-7.13783203 19.65792969 -6.83425781 18.84710938 -6.52148438 18.01171875 C-6.04678711 16.76841797 -6.04678711 16.76841797 -5.5625 15.5 C-4.93798118 13.84405936 -4.31426451 12.18781595 -3.69140625 10.53125 C-3.3989502 9.75523437 -3.10649414 8.97921875 -2.80517578 8.1796875 C-1.80556989 5.47365918 -0.88675008 2.74491483 0 0 Z " fill="#F3F5F3" transform="translate(839,358)"/>
<path d="M0 0 C0.86625 -0.00257813 1.7325 -0.00515625 2.625 -0.0078125 C5 0.125 5 0.125 8 1.125 C7.67 3.105 7.34 5.085 7 7.125 C6.01 6.795 5.02 6.465 4 6.125 C2.60560336 6.05834624 1.20830125 6.03961801 -0.1875 6.0625 C-1.445625 6.083125 -2.70375 6.10375 -4 6.125 C-4 7.445 -4 8.765 -4 10.125 C-3.39671875 10.43953125 -2.7934375 10.7540625 -2.171875 11.078125 C7.12466702 16.05627331 7.12466702 16.05627331 9 19.125 C9.27301757 22.31407757 9.015242 25.08504243 8 28.125 C5.5625 30.125 5.5625 30.125 3 31.125 C2.34 31.455 1.68 31.785 1 32.125 C-3.94269981 32.3680836 -7.49009758 32.37995121 -12 30.125 C-11.67 28.145 -11.34 26.165 -11 24.125 C-10.29875 24.455 -9.5975 24.785 -8.875 25.125 C-5.70893872 26.22623871 -3.32935296 26.34695686 0 26.125 C0.66 25.795 1.32 25.465 2 25.125 C1.82685281 23.19152491 1.82685281 23.19152491 1 21.125 C-0.93895285 19.73501124 -0.93895285 19.73501124 -3.3125 18.6875 C-7.16766716 16.66461324 -9.91593534 15.1036689 -12 11.125 C-11.93822484 7.54204089 -11.76840164 5.17282042 -9.625 2.25 C-6.50041344 0.08682469 -3.67429678 -0.01093541 0 0 Z " fill="#125D27" transform="translate(667,469.875)"/>
<path d="M0 0 C2.31 0 4.62 0 7 0 C8.17171756 3.28989086 9.33651088 6.58219102 10.5 9.875 C10.83386719 10.81214844 11.16773438 11.74929688 11.51171875 12.71484375 C11.98544922 14.05869141 11.98544922 14.05869141 12.46875 15.4296875 C12.76201172 16.25710449 13.05527344 17.08452148 13.35742188 17.93701172 C14 20 14 20 14 22 C14.66 22 15.32 22 16 22 C16.10183594 21.18273437 16.20367188 20.36546875 16.30859375 19.5234375 C17.1293064 15.34104875 18.51904991 11.5856863 20.0625 7.625 C20.34416016 6.88894531 20.62582031 6.15289062 20.91601562 5.39453125 C21.60566618 3.5944264 22.30213932 1.7969379 23 0 C24.98 0 26.96 0 29 0 C26.96150996 7.19386557 24.51843632 14.15709165 21.8125 21.125 C21.44447266 22.08148438 21.07644531 23.03796875 20.69726562 24.0234375 C19.80144555 26.35024289 18.90232227 28.67571021 18 31 C15.69 31 13.38 31 11 31 C9.42920342 26.90818124 7.86273669 22.81473984 6.30029297 18.71972656 C5.7679579 17.32636632 5.23443423 15.9334596 4.69970703 14.54101562 C3.93210244 12.54154094 3.16876212 10.54048383 2.40625 8.5390625 C1.94541016 7.33459473 1.48457031 6.13012695 1.00976562 4.88916016 C0 2 0 2 0 0 Z " fill="#145E29" transform="translate(512,470)"/>
<path d="M0 0 C1.98 0 3.96 0 6 0 C5.33020828 2.00937515 4.65998272 4.01860619 3.98828125 6.02734375 C3.25044338 8.24669009 2.51984191 10.46844465 1.79296875 12.69140625 C1.3619853 14.00260618 0.9309957 15.31380409 0.5 16.625 C0.0978125 17.85476563 -0.304375 19.08453125 -0.71875 20.3515625 C-1.9974405 23.99271167 -3.4403441 27.4726387 -5 31 C-7.31 31 -9.62 31 -12 31 C-13.4304204 27.21204894 -14.8543979 23.42174552 -16.27246094 19.62915039 C-16.75572265 18.33942542 -17.24073669 17.05035562 -17.72753906 15.76196289 C-18.42713915 13.90945042 -19.11991233 12.05436431 -19.8125 10.19921875 C-20.23144531 9.08377686 -20.65039062 7.96833496 -21.08203125 6.8190918 C-22 4 -22 4 -22 1 C-20.02 1 -18.04 1 -16 1 C-15.79318604 1.57032959 -15.58637207 2.14065918 -15.37329102 2.72827148 C-14.43924145 5.29907175 -13.5009299 7.86829565 -12.5625 10.4375 C-12.23701172 11.33533203 -11.91152344 12.23316406 -11.57617188 13.15820312 C-11.26357422 14.01220703 -10.95097656 14.86621094 -10.62890625 15.74609375 C-10.34088135 16.53685303 -10.05285645 17.3276123 -9.75610352 18.14233398 C-9.14751082 19.98194412 -9.14751082 19.98194412 -8 21 C-5.36 14.07 -2.72 7.14 0 0 Z " fill="#135D28" transform="translate(481,470)"/>
<path d="M0 0 C2.63016161 2.1727422 4.47336894 3.94673788 6 7 C6.34708476 12.29304255 6.51351894 15.73358414 3 20 C0.34500276 22.08606926 -1.06750504 21.99879455 -4.5 21.9375 C-8 21 -8 21 -10.4375 19.125 C-12.77915593 14.44168814 -12.87696503 10.13101467 -12 5 C-8.77279226 0.01249713 -5.81589049 -1.03855187 0 0 Z " fill="#F7F8F7" transform="translate(634,475)"/>
<path d="M0 0 C3.95056002 3.61058067 6.29817559 6.94257362 8.6875 11.8125 C9.26886719 12.97394531 9.85023438 14.13539063 10.44921875 15.33203125 C14.5294509 24.98275667 16.14777566 36.63395179 14 47 C11.55349374 50.74339211 8.93004767 52.91021275 5 55 C3.74539636 51.37558947 4.3731727 48.72991879 5 45 C5.84640544 30.95317213 6.14740533 17.25095108 1 4 C0.64436446 2.67244124 0.30116259 1.34096606 0 0 Z " fill="#82BC41" transform="translate(294,382)"/>
<path d="M0 0 C5.8408943 6.8917665 8.71829476 15.11433196 10 24 C10.10570312 24.66660645 10.21140625 25.33321289 10.3203125 26.02001953 C12.38065804 39.9123785 12.38065804 39.9123785 9.0546875 44.94140625 C6.79442717 46.92179109 4.62136765 48.53857476 2 50 C0.64710295 47.2942059 1.32222163 45.26419729 1.72900391 42.35449219 C2.21643089 38.11958601 2.19051328 33.88352013 2.1875 29.625 C2.18814453 28.67415527 2.18878906 27.72331055 2.18945312 26.74365234 C2.12344251 17.73770412 1.23241194 8.91297922 0 0 Z " fill="#7FBB3D" transform="translate(314,371)"/>
<path d="M0 0 C1.98 0 3.96 0 6 0 C6 10.23 6 20.46 6 31 C4.02 31 2.04 31 0 31 C0 20.77 0 10.54 0 0 Z " fill="#155F2A" transform="translate(497,470)"/>
<path d="M0 0 C6.4 -0.36923077 6.4 -0.36923077 9.4375 1.5 C9.953125 1.995 10.46875 2.49 11 3 C10.6875 5.875 10.6875 5.875 10 9 C6.3558226 11.4294516 4.28758728 11.16179575 0 11 C0 7.37 0 3.74 0 0 Z " fill="#EEF1EE" transform="translate(589,475)"/>
<path d="M0 0 C0.91523438 -0.01611328 1.83046875 -0.03222656 2.7734375 -0.04882812 C3.65257812 -0.04947266 4.53171875 -0.05011719 5.4375 -0.05078125 C6.24058594 -0.05376221 7.04367188 -0.05674316 7.87109375 -0.05981445 C10.4707902 0.3948343 11.35098676 1.30723892 13 3.3125 C11.02 3.6425 9.04 3.9725 7 4.3125 C7 4.9725 7 5.6325 7 6.3125 C0.29225357 5.13394268 -6.36181939 3.83601686 -13 2.3125 C-8.72800275 -0.53549817 -5.02201715 -0.01768316 0 0 Z " fill="#85BD47" transform="translate(176,459.6875)"/>
<path d="M0 0 C-3.07682098 3.62888216 -5.18684931 4.5850786 -9.875 5.1875 C-10.88304687 5.32542969 -11.89109375 5.46335937 -12.9296875 5.60546875 C-13.94289062 5.73566406 -14.95609375 5.86585938 -16 6 C-18.00123509 6.3258362 -20.00163563 6.65699716 -22 7 C-14.66592233 0.74446316 -9.45066526 -0.45403552 0 0 Z " fill="#83BD44" transform="translate(175,445)"/>
<path d="M0 0 C2.9492434 2.3784221 4.87943245 5.40792105 6.9375 8.5625 C5.9475 9.0575 5.9475 9.0575 4.9375 9.5625 C2.69439987 8.66583658 0.48995679 7.67103317 -1.6875 6.625 C-2.87601563 6.05910156 -4.06453125 5.49320312 -5.2890625 4.91015625 C-6.20429688 4.46542969 -7.11953125 4.02070313 -8.0625 3.5625 C-8.0625 2.9025 -8.0625 2.2425 -8.0625 1.5625 C-2.79420732 -0.59271064 -2.79420732 -0.59271064 0 0 Z " fill="#66AB38" transform="translate(191.0625,462.4375)"/>
<path d="M0 0 C0 0.99 0 1.98 0 3 C-3.4766338 5.14336161 -6.21229195 5.21277626 -10.25 5.125 C-11.32765625 5.10695313 -12.4053125 5.08890625 -13.515625 5.0703125 C-14.33546875 5.04710937 -15.1553125 5.02390625 -16 5 C-12.72327085 2.09707248 -10.04717391 1.41970936 -5.75 0.8125 C-4.13351563 0.57466797 -4.13351563 0.57466797 -2.484375 0.33203125 C-1.66453125 0.22246094 -0.8446875 0.11289062 0 0 Z " fill="#82BC43" transform="translate(163,429)"/>
<path d="M0 0 C3.00240304 1.68885171 4.26707545 4.21616237 6 7.125 C0.06 5.64 0.06 5.64 -6 4.125 C-2 0.125 -2 0.125 0 0 Z " fill="#67AC37" transform="translate(177,444.875)"/>
<path d="M0 0 C3.3 0 6.6 0 10 0 C10 0.99 10 1.98 10 3 C6.37 3 2.74 3 -1 3 C-0.67 2.01 -0.34 1.02 0 0 Z " fill="#025A1E" transform="translate(558,484)"/>
<path d="M0 0 C1.32 0.66 2.64 1.32 4 2 C4 3.65 4 5.3 4 7 C1.525 6.01 1.525 6.01 -1 5 C-0.67 3.35 -0.34 1.7 0 0 Z " fill="#7DB84B" transform="translate(225,503)"/>
<path d="M0 0 C-0.33 0.99 -0.66 1.98 -1 3 C-4.3 3.33 -7.6 3.66 -11 4 C-3.4 -1.7 -3.4 -1.7 0 0 Z " fill="#6CAE3E" transform="translate(269,492)"/>
<path d="M0 0 C0.66 1.32 1.32 2.64 2 4 C-0.97 3.67 -3.94 3.34 -7 3 C-3.375 0 -3.375 0 0 0 Z " fill="#66AB36" transform="translate(166,431)"/>
<path d="M0 0 C3 1 3 1 7 3 C3.37 3 -0.26 3 -4 3 C-2.68 2.01 -1.36 1.02 0 0 Z " fill="#96C564" transform="translate(151,431)"/>
</svg>
